<svg width="190" height="168" viewBox="0 0 190 168" fill="none" xmlns="http://www.w3.org/2000/svg">
<path d="M7.6377 147.852H184.638" stroke="#263238" stroke-width="0.742437" stroke-miterlimit="10"/>
<path d="M186.063 102.095C184.198 102.594 182.518 103.625 181.23 105.062C180.103 106.27 179.123 107.607 178.31 109.045C177.779 109.952 177.295 110.893 176.854 111.848C176.565 112.47 176.349 113.251 176.077 113.96C175.684 114.595 175.295 115.255 174.963 115.847C176.142 111.632 179.912 103.87 179.981 101.663C180.051 99.2619 177.753 102.847 176.457 107.71C175.731 110.48 175.18 113.293 174.807 116.132C174.673 116.378 174.552 116.62 174.449 116.845C174.215 117.337 173.814 118.175 173.278 119.264C174.418 115.683 174.876 111.429 174.168 110.897C173.149 110.137 172.777 112.007 172.777 115.454C172.777 118.167 171.913 121.432 171.559 122.702C170.916 123.997 170.194 125.384 169.426 126.861C170.233 124.269 170.7 120.564 171.153 117.791C171.797 113.739 171.52 112.478 170.207 114.422C168.894 116.365 169.128 119.173 169.439 122.628C169.689 125.371 168.691 128.07 168.268 129.072C167.279 130.947 166.23 132.886 165.171 134.791C166.069 132.837 166.64 130.749 166.86 128.61C167.314 123.924 166.709 119.626 165.629 120.836C164.549 122.045 165.197 125.315 165.063 129.279C164.977 131.694 164.696 134.097 164.221 136.466L163.897 137.037C164.324 135.032 164.431 132.972 164.213 130.934C164.428 130.148 164.355 129.638 164.096 129.409C164.057 128.545 164.13 127.202 163.755 126.524C162.809 124.835 161.768 127.116 161.759 128.01C161.759 128.697 161.807 129.384 161.902 130.066C161.531 130.407 161.211 130.8 160.952 131.232C160.809 131.469 160.658 131.741 160.52 132.031C160.52 131.75 160.55 131.465 160.563 131.167C160.614 130.402 160.452 129.639 160.096 128.96C160.669 127.823 161.08 126.612 161.319 125.362C161.418 124.945 161.38 124.507 161.211 124.114C161.148 123.978 161.056 123.858 160.942 123.762C160.828 123.666 160.694 123.596 160.55 123.557C160.406 123.518 160.255 123.512 160.108 123.538C159.961 123.564 159.821 123.622 159.699 123.708C157.898 124.662 157.414 126.956 157.216 128.796C157.022 130.376 156.709 131.94 156.278 133.473C155.907 134.86 155.587 136.117 155.376 136.972C155.22 136.009 155.03 135.071 154.806 134.208C154.607 133.447 154.408 132.722 154.218 132.013C154.045 129.459 154.545 126.903 155.669 124.602C157.799 120.231 159.336 118.184 157.863 118.089C156.391 117.994 154.244 120.296 153.937 123.902C153.713 126.089 153.666 128.29 153.799 130.485C153.333 128.804 152.871 127.224 152.387 125.617C152.019 123.838 152.112 121.995 152.655 120.261C153.661 117.29 156.663 112.012 155.082 112.426C153.501 112.841 151.605 115.903 151.393 119.143C151.338 120.839 151.526 122.535 151.951 124.179C151.605 123.047 151.242 121.881 150.854 120.65C150.685 120.123 150.512 119.562 150.34 118.987C150.34 118.892 150.314 118.793 150.296 118.693C150.076 117.019 150.378 115.318 151.16 113.822C152.668 111.105 155.479 108.773 153.816 108.151C152.154 107.529 149.653 111.947 149.497 114.158C149.466 114.999 149.534 115.839 149.7 116.663C149.636 116.495 149.567 116.322 149.497 116.149C149.139 114.884 148.793 113.631 148.491 112.521C148.417 110.884 148.745 109.253 149.446 107.77C150.923 104.393 152.797 100.519 150.884 101.503C149.342 102.303 147.67 106.863 148.003 110.716C147.869 110.215 147.757 109.779 147.662 109.42C147.411 107.213 146.936 102.017 147.662 98.9207C148.137 96.8518 148.91 94.8996 149.152 92.7746C149.195 92.5577 149.183 92.3336 149.117 92.1224C148.603 90.8267 146.932 93.3318 146.66 93.7421C145.63 95.3818 145.101 97.2869 145.139 99.223C145.141 100.874 145.337 102.52 145.723 104.125C145.956 105.153 146.245 106.168 146.586 107.17C146.798 107.822 147.174 108.539 147.45 109.243C147.593 109.973 147.757 110.716 147.925 111.381C145.908 107.494 143.369 99.2489 141.909 97.5904C140.324 95.785 141.092 99.9789 143.468 104.419C144.814 106.942 146.318 109.377 147.973 111.709C148.046 111.986 148.124 112.241 148.197 112.478C148.366 112.997 148.629 113.882 148.992 115.044C147.385 111.645 144.816 108.224 143.939 108.323C142.673 108.462 143.675 110.081 146.029 112.599C147.882 114.582 149.484 117.553 150.085 118.732C150.482 120.101 150.918 121.622 151.381 123.228C150.21 120.793 148.016 117.756 146.44 115.42C144.146 112.016 143.084 111.282 143.451 113.601C143.818 115.921 145.917 117.825 148.504 120.136C150.556 121.972 151.67 124.624 152.046 125.647C152.599 127.69 153.16 129.824 153.683 131.94C153.009 129.897 152.001 127.981 150.698 126.269C147.83 122.533 144.457 119.79 144.5 121.432C144.543 123.073 147.23 125.008 149.847 127.988C151.427 129.799 152.859 131.733 154.132 133.771C154.179 133.987 154.231 134.203 154.283 134.411C153.087 132.251 151.26 130.523 149.428 128.899C148.789 128.329 147.826 127.09 147.005 126.826C145.161 126.235 145.956 128.61 146.573 129.271C148.543 131.43 151.324 132.752 153.134 135.011C153.818 135.868 154.434 136.778 154.974 137.732C155.101 138.475 155.2 139.17 155.272 139.818C154.577 139.123 153.173 138.008 153.074 137.939C150.845 136.441 149.558 134.389 147.848 132.415C147.334 131.819 146.457 131.094 145.632 131.059C144.483 131.003 144.116 132.234 144.44 133.197C145.787 137.175 150.862 137.348 153.855 139.416C154.401 139.764 154.905 140.173 155.358 140.634C155.48 141.861 155.513 143.095 155.458 144.327H148.625V147.178H150.659L152.292 157.328H165.962L167.612 147.178H169.646V144.327H159.375C159.846 143.761 160.347 143.144 160.852 142.492L163.012 142.556C163.012 142.556 170.518 142.885 173.278 141.403C176.038 139.922 173.576 138.488 170.942 139.244C168.307 139.999 163.12 142.349 161.975 142.314L161.003 142.289C161.539 141.593 162.075 140.863 162.584 140.129C164.664 139.618 166.709 138.971 168.704 138.194C170.864 137.33 173.369 136.648 175.226 135.205C175.584 134.97 175.856 134.624 175.999 134.221C176.046 134.079 176.062 133.928 176.044 133.78C176.027 133.632 175.977 133.489 175.898 133.362C175.819 133.235 175.714 133.127 175.589 133.046C175.464 132.964 175.322 132.911 175.174 132.89C173.205 132.359 171.287 133.707 169.883 134.912C168.662 135.938 167.362 136.868 165.996 137.693C164.778 138.453 163.69 139.153 162.947 139.637C163.491 138.825 163.997 138.013 164.42 137.227C164.791 136.536 165.145 135.87 165.487 135.223C167.105 133.238 169.215 131.711 171.607 130.795C176.15 129.068 178.668 128.606 177.653 127.53C176.639 126.455 173.499 126.666 170.816 129.102C169.16 130.548 167.623 132.125 166.221 133.819C167.024 132.273 167.767 130.795 168.514 129.297C169.456 127.744 170.781 126.459 172.363 125.565C175.123 124.079 180.919 122.27 179.48 121.497C178.042 120.723 174.57 121.661 172.207 123.889C171.009 125.089 169.99 126.457 169.184 127.949C169.702 126.882 170.233 125.79 170.79 124.619C171.028 124.118 171.283 123.596 171.551 123.056L171.719 122.81C172.699 121.434 174.081 120.396 175.675 119.838C178.63 118.883 182.279 119.099 181.489 117.51C180.698 115.921 175.852 117.445 174.241 118.961C173.645 119.555 173.121 120.216 172.678 120.931C172.747 120.762 172.816 120.59 172.881 120.412C173.481 119.246 174.082 118.097 174.609 117.078C175.673 115.833 177.025 114.867 178.548 114.262C181.929 112.798 185.946 111.239 183.873 110.664C182.201 110.189 177.869 112.392 175.481 115.415C175.727 114.957 175.939 114.551 176.112 114.245C177.433 112.457 180.634 108.336 183.268 106.561C185.026 105.373 186.922 104.471 188.551 103.106C188.736 102.978 188.885 102.804 188.982 102.601C189.466 101.296 186.542 101.979 186.063 102.095ZM155.449 137.568C155.881 136.894 156.671 135.65 157.531 134.048C157.793 134.771 158.096 135.479 158.438 136.168C157.639 137.801 156.913 139.218 156.494 139.585L155.747 140.228C155.682 139.356 155.579 138.453 155.449 137.568ZM160.429 142.297C159.803 143.105 159.228 143.77 158.701 144.327H156.037C155.993 143.243 155.92 141.908 155.79 140.483L157.414 139.054C157.414 139.054 158.127 138.445 159.094 137.529C159.554 138.438 159.912 139.396 160.161 140.384C160.32 141.01 160.41 141.652 160.429 142.297ZM162.64 136.682C162.555 137.774 162.383 138.857 162.126 139.922C161.712 140.552 161.31 141.128 160.921 141.649C160.861 140.687 160.751 139.728 160.593 138.777C160.415 137.981 160.315 137.17 160.295 136.354C161.076 135.568 161.816 134.742 162.511 133.879C162.654 134.803 162.703 135.74 162.658 136.674L162.64 136.682Z" fill="#20529B"/>
<path d="M147.522 161.141C147.522 161.458 147.331 161.826 146.827 162.239C146.328 162.649 145.569 163.06 144.559 163.46C142.542 164.26 139.602 164.988 135.943 165.601C128.633 166.828 118.519 167.588 107.339 167.588C96.1592 167.588 86.046 166.828 78.7351 165.601C75.0769 164.988 72.137 164.26 70.1197 163.46C69.1093 163.06 68.3508 162.649 67.851 162.239C67.3471 161.826 67.1562 161.458 67.1562 161.141C67.1562 160.824 67.3471 160.456 67.851 160.043C68.3508 159.633 69.1093 159.222 70.1197 158.822C72.137 158.022 75.0769 157.294 78.7351 156.681C86.046 155.454 96.1592 154.694 107.339 154.694C118.519 154.694 128.633 155.454 135.943 156.681C139.602 157.294 142.542 158.022 144.559 158.822C145.569 159.222 146.328 159.633 146.827 160.043C147.331 160.456 147.522 160.824 147.522 161.141Z" fill="#20529B" stroke="#263238" stroke-width="0.703034"/>
<path opacity="0.5" d="M147.522 161.141C147.522 161.458 147.331 161.826 146.827 162.239C146.328 162.649 145.569 163.06 144.559 163.46C142.542 164.26 139.602 164.988 135.943 165.601C128.633 166.828 118.519 167.588 107.339 167.588C96.1592 167.588 86.046 166.828 78.7351 165.601C75.0769 164.988 72.137 164.26 70.1197 163.46C69.1093 163.06 68.3508 162.649 67.851 162.239C67.3471 161.826 67.1562 161.458 67.1562 161.141C67.1562 160.824 67.3471 160.456 67.851 160.043C68.3508 159.633 69.1093 159.222 70.1197 158.822C72.137 158.022 75.0769 157.294 78.7351 156.681C86.046 155.454 96.1592 154.694 107.339 154.694C118.519 154.694 128.633 155.454 135.943 156.681C139.602 157.294 142.542 158.022 144.559 158.822C145.569 159.222 146.328 159.633 146.827 160.043C147.331 160.456 147.522 160.824 147.522 161.141Z" fill="white" stroke="#263238" stroke-width="0.703034"/>
<path d="M109.481 21.0693H105.201V157.133H109.481V21.0693Z" fill="#263238" stroke="#263238" stroke-width="0.742437" stroke-linecap="round" stroke-linejoin="round"/>
<path d="M132.062 133.555H82.6167L83.2084 129.128H131.176L132.062 133.555Z" fill="#263238" stroke="#263238" stroke-width="0.742437" stroke-linecap="round" stroke-linejoin="round"/>
<path d="M136.121 160.489H141.136L118.115 21.4014H113.096L136.121 160.489Z" fill="#263238" stroke="#263238" stroke-width="0.742437" stroke-linecap="round" stroke-linejoin="round"/>
<path d="M78.8547 160.489H73.8359L96.5672 21.4014H101.582L78.8547 160.489Z" fill="#263238" stroke="#263238" stroke-width="0.742437" stroke-linecap="round" stroke-linejoin="round"/>
<path d="M117.597 102.043H97.0815V105.144H117.597V102.043Z" fill="#263238" stroke="#263238" stroke-width="0.742437" stroke-linecap="round" stroke-linejoin="round"/>
<path d="M122.672 24.2095H92.0107V27.3106H122.672V24.2095Z" fill="#263238" stroke="#263238" stroke-width="0.742437" stroke-linecap="round" stroke-linejoin="round"/>
<path d="M137.447 27.1592H76.937V99.0935H137.447V27.1592Z" fill="white" stroke="#263238" stroke-width="0.742437" stroke-linecap="round" stroke-linejoin="round"/>
<path d="M141.136 98.7959H73.5425V102.338H141.136V98.7959Z" fill="#263238" stroke="#263238" stroke-width="0.742437" stroke-linecap="round" stroke-linejoin="round"/>
</svg>
