<svg width="14" height="17" viewBox="0 0 14 17" fill="none" xmlns="http://www.w3.org/2000/svg">
<path d="M13.0914 6.76535C13.5024 6.76535 13.8394 7.08183 13.8721 7.48436L13.8747 7.5486V13.9265C13.8747 15.3147 12.7754 16.4463 11.3999 16.4981L11.3011 16.5H2.57353C1.18526 16.5 0.0537367 15.4008 0.00185844 14.0252L0 13.9265V7.5486C0 7.11602 0.350672 6.76535 0.783247 6.76535C1.19419 6.76535 1.53122 7.08183 1.5639 7.48436L1.56649 7.5486V13.9265C1.56649 14.4595 1.98057 14.8957 2.50458 14.9312L2.57353 14.9335H11.3011C11.8341 14.9335 12.2704 14.5194 12.3058 13.9954L12.3082 13.9265V7.5486C12.3082 7.11602 12.6588 6.76535 13.0914 6.76535ZM6.71306 0.507375L6.77969 0.500705L6.85789 0.5L6.92704 0.505822L7.00667 0.520262L7.03754 0.528431C7.12496 0.552563 7.20897 0.592377 7.28526 0.647637L7.33875 0.690166L7.38035 0.728781L10.8616 4.21006C11.1675 4.51594 11.1675 5.01186 10.8616 5.31774C10.5737 5.60562 10.1175 5.62256 9.80982 5.36854L9.75395 5.31774L7.60869 3.17226V11.8005C7.60869 12.2115 7.29221 12.5485 6.88968 12.5812L6.82544 12.5838C6.41449 12.5838 6.07747 12.2673 6.04479 11.8648L6.04219 11.8005V3.17405L3.89907 5.31774C3.61119 5.60562 3.15496 5.62256 2.84727 5.36854L2.79139 5.31774C2.50351 5.02985 2.48657 4.57362 2.74059 4.26593L2.79139 4.21006L6.26097 0.739622C6.28598 0.713631 6.31276 0.689363 6.34113 0.667014L6.39185 0.630866C6.40873 0.618981 6.42639 0.608187 6.4445 0.598091L6.45291 0.593983C6.53217 0.550495 6.61997 0.52075 6.71306 0.507375Z" fill="#0B0C0E"/>
</svg>
